<?xml version="1.0" encoding="UTF-8" standalone="no"?>
<!-- Created with Inkscape (http://www.inkscape.org/) -->

<svg
   xmlns:dc="http://purl.org/dc/elements/1.1/"
   xmlns:cc="http://creativecommons.org/ns#"
   xmlns:rdf="http://www.w3.org/1999/02/22-rdf-syntax-ns#"
   xmlns:svg="http://www.w3.org/2000/svg"
   xmlns="http://www.w3.org/2000/svg"
   xmlns:sodipodi="http://sodipodi.sourceforge.net/DTD/sodipodi-0.dtd"
   xmlns:inkscape="http://www.inkscape.org/namespaces/inkscape"
   width="50"
   height="50"
   viewBox="0 0 13.229166 13.229167"
   version="1.1"
   id="svg8"
   inkscape:version="0.92.5 (2060ec1f9f, 2020-04-08)"
   sodipodi:docname="draw-grid.svg">
  <defs
     id="defs2" />
  <sodipodi:namedview
     id="base"
     pagecolor="#ffffff"
     bordercolor="#666666"
     borderopacity="1.0"
     inkscape:pageopacity="0.0"
     inkscape:pageshadow="2"
     inkscape:zoom="3.959798"
     inkscape:cx="123.9522"
     inkscape:cy="9.2255481"
     inkscape:document-units="px"
     inkscape:current-layer="layer1"
     showgrid="false"
     units="px"
     inkscape:window-width="2488"
     inkscape:window-height="1376"
     inkscape:window-x="72"
     inkscape:window-y="27"
     inkscape:window-maximized="1" />
  <metadata
     id="metadata5">
    <rdf:RDF>
      <cc:Work
         rdf:about="">
        <dc:format>image/svg+xml</dc:format>
        <dc:type
           rdf:resource="http://purl.org/dc/dcmitype/StillImage" />
        <dc:title></dc:title>
      </cc:Work>
    </rdf:RDF>
  </metadata>
  <g
     inkscape:label="Layer 1"
     inkscape:groupmode="layer"
     id="layer1"
     transform="translate(0,-283.77081)">
    <path
       style="fill:#9fff05;fill-opacity:1;fill-rule:evenodd;stroke:#000000;stroke-width:0.99999994px;stroke-linecap:butt;stroke-linejoin:miter;stroke-opacity:1"
       d="M 17.158203 1.8417969 L 14.130859 1.9707031 L 14.15625 13.646484 L 4.8828125 14.126953 L 5.4667969 18.896484 L 14.199219 17.664062 L 14.291016 31.072266 L 4.9257812 31.876953 L 5.1933594 34.667969 L 14.3125 34.285156 L 14.386719 45.167969 L 17.746094 44.695312 L 18.220703 35.212891 L 31.912109 34.609375 L 32.121094 42.662109 L 35.015625 42.988281 L 34.84375 34.427734 L 45.609375 33.962891 L 45.132812 31.181641 L 34.585938 30.943359 L 34.507812 17.884766 L 44.214844 17.873047 L 43.873047 14.943359 L 34.435547 14.345703 L 34.388672 3.3730469 L 29.980469 2.9804688 L 29.720703 14.150391 L 18.355469 13.958984 L 17.158203 1.8417969 z M 30.535156 17.947266 L 30 30.625 L 18.927734 30.982422 L 19.375 18.839844 L 30.535156 17.947266 z "
       transform="matrix(0.26458333,0,0,0.26458333,0,283.77081)"
       id="path838" />
  </g>
</svg>
