<?xml version="1.0" encoding="UTF-8" standalone="no"?>
<!-- Created with Inkscape (http://www.inkscape.org/) -->

<svg
   xmlns:dc="http://purl.org/dc/elements/1.1/"
   xmlns:cc="http://creativecommons.org/ns#"
   xmlns:rdf="http://www.w3.org/1999/02/22-rdf-syntax-ns#"
   xmlns:svg="http://www.w3.org/2000/svg"
   xmlns="http://www.w3.org/2000/svg"
   xmlns:sodipodi="http://sodipodi.sourceforge.net/DTD/sodipodi-0.dtd"
   xmlns:inkscape="http://www.inkscape.org/namespaces/inkscape"
   width="50"
   height="50"
   viewBox="0 0 13.229166 13.229167"
   version="1.1"
   id="svg8"
   inkscape:version="0.92.5 (2060ec1f9f, 2020-04-08)"
   sodipodi:docname="scale-reset.svg">
  <defs
     id="defs2" />
  <sodipodi:namedview
     id="base"
     pagecolor="#ffffff"
     bordercolor="#666666"
     borderopacity="1.0"
     inkscape:pageopacity="0.0"
     inkscape:pageshadow="2"
     inkscape:zoom="15.839192"
     inkscape:cx="43.573533"
     inkscape:cy="23.541659"
     inkscape:document-units="px"
     inkscape:current-layer="layer1"
     showgrid="false"
     units="px"
     inkscape:window-width="2488"
     inkscape:window-height="1376"
     inkscape:window-x="72"
     inkscape:window-y="27"
     inkscape:window-maximized="1"
     inkscape:snap-global="false" />
  <metadata
     id="metadata5">
    <rdf:RDF>
      <cc:Work
         rdf:about="">
        <dc:format>image/svg+xml</dc:format>
        <dc:type
           rdf:resource="http://purl.org/dc/dcmitype/StillImage" />
        <dc:title></dc:title>
      </cc:Work>
    </rdf:RDF>
  </metadata>
  <g
     inkscape:label="Layer 1"
     inkscape:groupmode="layer"
     id="layer1"
     transform="translate(0,-283.77081)">
    <path
       style="fill:#ffffff;fill-opacity:1;fill-rule:evenodd;stroke:#000000;stroke-width:0.52916664;stroke-linecap:butt;stroke-linejoin:miter;stroke-miterlimit:4;stroke-dasharray:none;stroke-opacity:1"
       d="m 4.9008356,291.43531 -3.90983526,3.65284 1.12078566,1.1795 3.500621,-4.17947"
       id="path861"
       inkscape:connector-curvature="0"
       sodipodi:nodetypes="cccc" />
    <circle
       style="opacity:1;fill:#ffffff;fill-opacity:1;fill-rule:evenodd;stroke:#000000;stroke-width:0.68263978;stroke-linecap:round;stroke-linejoin:round;stroke-miterlimit:4;stroke-dasharray:none;stroke-dashoffset:0;stroke-opacity:1;paint-order:normal"
       id="path859"
       cx="8.4059038"
       cy="288.58957"
       r="4.4396396" />
    <path
       style="fill:#9fff05;fill-opacity:1;fill-rule:evenodd;stroke:#000000;stroke-width:0.13229166;stroke-linecap:butt;stroke-linejoin:miter;stroke-miterlimit:4;stroke-dasharray:none;stroke-opacity:1"
       d="m 6.4413885,286.33031 -0.044441,3.89537 0.258382,0.0971 1.2924277,0.008 -0.0093,-3.98839 z m 2.2210533,0.0713 -0.2413291,4.00079 1.5285889,-0.0243 0.057878,-3.9548 z m -2.7832928,0.0289 -0.6996989,0.14263 -0.5751586,0.95394 0.5431192,0.15865 0.045475,2.63033 0.5891115,-0.0238 z m 1.5843995,0.44132 -0.064596,2.89853 -0.5441529,-0.0543 0.1291913,-2.82257 z m 1.541508,0.078 0.4537189,0.0506 -0.038757,2.8236 -0.4635376,0.0563 z m 1.9223625,0.23461 -0.441833,0.45217 0.323495,0.38809 0.468705,-0.42013 z m 1.102775,0.25218 -1.815392,1.71256 0.255798,0.39894 1.883606,-1.70842 z m -0.337447,1.59525 -0.436665,0.51728 0.404109,0.42582 0.447001,-0.36639 z"
       id="path838"
       inkscape:connector-curvature="0" />
  </g>
</svg>
